<?xml version="1.0" encoding="utf-8"?>
<!-- Generator: Adobe Illustrator 24.1.2, SVG Export Plug-In . SVG Version: 6.00 Build 0)  -->
<svg version="1.1" id="Layer_1" xmlns="http://www.w3.org/2000/svg" xmlns:xlink="http://www.w3.org/1999/xlink" x="0px" y="0px"
	 viewBox="0 0 256 256" style="enable-background:new 0 0 256 256;" xml:space="preserve">
<g>
	<path d="M249.8,71c-4.1-17.2-10.4-31.7-21.4-42.7c-0.1-0.1-0.2-0.2-0.3-0.3c-0.1-0.1-0.2-0.2-0.3-0.3
		c-10.9-10.9-25.5-17.3-42.7-21.4c-17.3-4-37.2-5.7-57.1-5.7S88.2,2.3,71,6.2c-17.3,4.1-32,10.5-43,21.7C16.8,39,10.3,53.6,6.2,71
		c-4,17.3-5.7,37.2-5.7,57.1s1.7,39.9,5.7,57.1c4.1,17.2,10.4,31.7,21.4,42.7c0.1,0.1,0.2,0.2,0.3,0.3c0.1,0.1,0.2,0.2,0.3,0.3
		c10.9,10.9,25.5,17.3,42.7,21.4c17.3,4,37.2,5.7,57.1,5.7s39.9-1.7,57.1-5.7c17.3-4.1,32-10.5,43-21.7c11.1-11,17.6-25.6,21.7-43
		c4-17.3,5.7-37.2,5.7-57.1S253.8,88.2,249.8,71z"/>
</g>
</svg>
